# Blender v2.74 (sub 0) OBJ File: ''
# www.blender.org
o Cube_Cube.002
v -2.019616 -1.000000 1.000000
v -2.019616 1.000000 1.000000
v -2.019616 -1.000000 -1.000000
v -2.019616 1.000000 -1.000000
v -1.167389 1.249474 0.578025
v -1.167389 1.249474 -0.578025
v -0.673205 1.000000 -1.000000
v -0.673205 -1.000000 -1.000000
v -0.350179 1.000000 1.000000
v -0.350179 -1.000000 1.000000
v -0.389130 1.249474 -0.578025
v -0.389130 1.249474 0.578025
v -2.019616 -0.072000 1.000000
v -2.019616 -0.072000 -1.000000
v -0.350179 -0.072000 1.000000
v -0.673205 -0.072000 -1.000000
v -0.343659 -0.592187 0.998453
v -0.175089 0.157104 1.000000
v -0.290640 0.061674 0.992207
v -0.350179 -1.000000 0.852964
v -0.350179 -0.072000 0.852964
v -0.343659 -0.592187 0.851417
v -0.175089 0.157104 0.852964
v -0.290640 0.061674 0.845171
v -2.019616 1.000000 0.823931
v -2.019616 -1.000000 0.823931
v -1.167389 1.249474 0.476253
v -0.389130 1.249474 0.476253
v -0.378616 -1.000000 0.823931
v -2.019616 -0.072000 0.823931
v -0.330745 1.670779 0.000000
v -0.572866 1.469942 0.000000
v -0.661489 1.195593 0.000000
v -0.165372 1.670779 -0.286433
v -0.286433 1.469942 -0.496117
v -0.330745 1.195593 -0.572866
v 0.165372 1.670779 -0.286433
v 0.286433 1.469942 -0.496117
v 0.330744 1.195593 -0.572866
v 0.330744 1.670779 0.000000
v 0.572866 1.469942 0.000000
v 0.661489 1.195593 0.000000
v 0.165372 1.670779 0.286433
v 0.286433 1.469942 0.496117
v 0.330744 1.195593 0.572866
v -0.165372 1.670779 0.286433
v -0.286433 1.469942 0.496117
v -0.330745 1.195593 0.572866
v 2.019616 -1.000000 1.000000
v 2.019616 1.000000 1.000000
v 2.019616 -1.000000 -1.000000
v 2.019616 1.000000 -1.000000
v 1.167389 1.249474 0.578025
v 1.167389 1.249474 -0.578025
v 0.673205 1.000000 -1.000000
v 0.673205 -1.000000 -1.000000
v 0.350179 1.000000 1.000000
v 0.350179 -1.000000 1.000000
v 0.389130 1.249474 -0.578025
v 0.389130 1.249474 0.578025
v 2.019616 -0.072000 1.000000
v 2.019616 -0.072000 -1.000000
v 0.350179 -0.072000 1.000000
v 0.673205 -0.072000 -1.000000
v 0.000000 1.000000 -1.000000
v 0.000000 -1.000000 -1.000000
v 0.000000 1.000000 1.000000
v 0.000000 1.249474 -0.578025
v 0.000000 1.249474 0.578025
v 0.000000 -0.072000 -1.000000
v 0.000000 0.178532 1.000000
v 0.343659 -0.592187 0.998453
v 0.175089 0.157104 1.000000
v 0.290640 0.061674 0.992207
v 0.350179 -1.000000 0.852964
v 0.350179 -0.072000 0.852964
v 0.000000 -1.000000 0.852964
v 0.000000 0.178532 0.852964
v 0.343659 -0.592187 0.851417
v 0.175089 0.157104 0.852964
v 0.290640 0.061674 0.845171
v 2.019616 1.000000 0.823931
v 2.019616 -1.000000 0.823931
v 1.167389 1.249474 0.476253
v 0.389130 1.249474 0.476253
v 0.378616 -1.000000 0.823931
v 2.019616 -0.072000 0.823931
v 0.000000 1.249474 0.476253
v 0.330745 1.670779 0.000000
v 0.572866 1.469942 0.000000
v 0.661489 1.195593 0.000000
v 0.165372 1.670779 -0.286433
v 0.286433 1.469942 -0.496117
v 0.330745 1.195593 -0.572866
v 0.000000 1.744290 0.000000
v -0.165372 1.670779 -0.286433
v -0.286433 1.469942 -0.496117
v -0.330744 1.195593 -0.572866
v -0.330744 1.670779 0.000000
v -0.572866 1.469942 0.000000
v -0.661489 1.195593 0.000000
v -0.165372 1.670779 0.286433
v -0.286433 1.469942 0.496117
v -0.330744 1.195593 0.572866
v 0.165372 1.670779 0.286433
v 0.286433 1.469942 0.496117
v 0.330745 1.195593 0.572866
vt 0.274639 0.403749
vt 0.274639 0.302827
vt 0.287153 0.290338
vt 0.470615 0.334218
vt 0.288361 0.390055
vt 0.288361 0.289132
vt 0.535485 0.762875
vt 0.814131 0.764707
vt 0.809994 0.865372
vt 0.943858 0.810298
vt 0.925318 0.991483
vt 0.444114 0.991486
vt 0.396057 0.990237
vt 0.511121 0.863443
vt 0.948577 0.719608
vt 0.815746 0.713199
vt 0.375623 0.764967
vt 0.508332 0.763560
vt 0.421065 0.303408
vt 0.421065 0.404331
vt 0.421065 0.520914
vt 0.288361 0.506638
vt 0.469916 0.390776
vt 0.274640 0.520332
vt 0.287153 0.391260
vt 0.469916 0.507359
vt 0.476338 0.405392
vt 0.488958 0.415767
vt 0.494278 0.521204
vt 0.494278 0.404621
vt 0.494278 0.303699
vt 0.373502 0.717777
vt 0.506917 0.711779
vt 0.475329 0.406399
vt 0.487949 0.416774
vt 0.468907 0.391783
vt 0.506990 0.419180
vt 0.469606 0.335224
vt 0.469916 0.289853
vt 0.468907 0.290860
vt 0.287153 0.507843
vt 0.465616 0.291047
vt 0.534504 0.711219
vt 0.537597 0.863544
vt 0.506990 0.291012
vt 0.681722 0.048039
vt 0.701314 0.342321
vt 0.764634 0.342321
vt 0.754838 0.557750
vt 0.791396 0.557750
vt 0.891275 0.342321
vt 0.901071 0.048039
vt 0.864513 0.557750
vt 0.954596 0.342321
vt 0.974187 0.048039
vt 0.901071 0.557750
vt 0.754838 0.048039
vt 0.827955 0.592506
vt 0.507999 0.507510
vt 0.507999 0.418173
vn -1.000000 0.000000 0.000000
vn 0.000900 0.000000 1.000000
vn 0.000000 1.000000 -0.000000
vn 0.000000 0.860800 -0.508900
vn -0.280900 0.959700 0.000000
vn 0.000000 0.860800 0.508900
vn 0.000000 -1.000000 0.000000
vn 0.000000 0.000000 -1.000000
vn 0.000000 0.000000 1.000000
vn -0.057500 -0.011900 0.998300
vn 0.636800 -0.771000 0.000000
vn -0.060900 0.085100 0.994500
vn 0.121500 -0.992600 0.000000
vn 0.999900 0.012500 0.000000
vn 0.913500 -0.406900 0.000000
vn 0.999900 -0.016000 0.000000
vn -0.834000 0.269400 -0.481500
vn -0.599000 0.722200 -0.345900
vn 0.000000 0.269400 -0.963000
vn 0.000000 0.722200 -0.691700
vn 0.834000 0.269400 -0.481500
vn 0.599000 0.722200 -0.345900
vn 0.834000 0.269400 0.481500
vn 0.599000 0.722200 0.345900
vn -0.000000 0.269400 0.963000
vn -0.000000 0.722200 0.691700
vn -0.215300 0.968600 -0.124300
vn 0.000000 0.968600 -0.248600
vn 0.215300 0.968600 -0.124300
vn 0.215300 0.968600 0.124300
vn -0.000000 0.968600 0.248600
vn -0.834000 0.269400 0.481500
vn -0.599000 0.722200 0.345900
vn -0.215300 0.968600 0.124300
vn 1.000000 0.000000 0.000000
vn -0.000900 0.000000 1.000000
vn 0.280900 0.959700 0.000000
vn -0.636800 -0.771000 0.000000
vn 0.060900 0.085100 0.994500
vn -0.121500 -0.992600 0.000000
vn -0.999900 0.012500 0.000000
vn -0.913500 -0.406900 0.000000
vn -0.999900 -0.016000 0.000000
vn 0.000000 -0.003000 1.000000
vn 0.000000 0.003800 1.000000
vn 0.129800 0.000000 0.991500
vn 0.002100 -0.002900 1.000000
vn 0.011700 -0.095400 0.995400
vn -0.004500 0.000000 1.000000
vn -0.129800 0.000000 0.991500
vn 0.057500 -0.011900 0.998300
vn 0.004500 0.000000 1.000000
vn -0.011700 -0.095400 0.995400
vn -0.002100 -0.002900 1.000000
s off
f 14/1/1 3/2/1 26/3/1
f 17/4/2 13/5/2 1/6/2
f 28/7/3 11/8/3 6/9/3
f 7/10/4 4/11/4 6/9/4
f 25/12/5 2/13/5 5/14/5
f 65/15/4 7/10/4 11/8/4
f 68/16/3 11/8/3 28/7/3
f 9/17/6 12/18/6 5/14/6
f 26/3/7 3/2/7 8/19/7
f 16/20/8 8/19/8 3/2/8
f 7/21/8 16/20/8 14/1/8
f 2/22/9 13/5/9 15/23/9
f 4/24/1 14/1/1 30/25/1
f 9/26/10 19/27/10 18/28/10
f 65/29/8 70/30/8 16/20/8
f 70/30/8 66/31/8 8/19/8
f 9/17/6 67/32/6 69/33/6
f 19/27/11 24/34/11 23/35/11
f 21/36/12 78/37/12 24/34/12
f 18/28/13 23/35/13 78/37/13
f 17/4/14 22/38/14 21/36/14
f 19/27/15 15/23/15 21/36/15
f 17/4/16 10/39/16 20/40/16
f 25/41/1 30/25/1 13/5/1
f 1/6/7 26/3/7 29/42/7
f 88/43/3 28/7/3 12/18/3
f 25/12/5 27/44/5 6/9/5
f 28/7/3 27/44/3 5/14/3
f 30/25/1 26/3/1 1/6/1
f 10/39/7 29/42/7 20/40/7
f 66/31/7 77/45/7 29/42/7
f 33/46/17 32/47/17 35/48/17
f 32/47/18 31/49/18 34/50/18
f 35/48/19 38/51/19 39/52/19
f 34/50/20 37/53/20 38/51/20
f 38/51/21 41/54/21 42/55/21
f 38/51/22 37/53/22 40/56/22
f 41/54/23 44/51/23 45/52/23
f 40/56/24 43/53/24 44/51/24
f 44/51/25 47/48/25 48/57/25
f 44/51/26 43/53/26 46/50/26
f 31/49/27 95/58/27 34/50/27
f 34/50/28 95/58/28 37/53/28
f 37/53/29 95/58/29 40/56/29
f 40/56/30 95/58/30 43/53/30
f 43/53/31 95/58/31 46/50/31
f 47/48/32 32/47/32 33/46/32
f 46/50/33 31/49/33 32/47/33
f 46/50/34 95/58/34 31/49/34
f 83/3/35 51/2/35 62/1/35
f 61/5/36 72/4/36 49/6/36
f 84/44/3 54/9/3 59/8/3
f 55/10/4 59/8/4 54/9/4
f 82/12/37 84/44/37 53/14/37
f 65/15/4 68/16/4 59/8/4
f 85/7/3 59/8/3 68/16/3
f 53/14/6 60/18/6 57/17/6
f 83/3/7 86/42/7 56/19/7
f 51/2/8 56/19/8 64/20/8
f 62/1/8 64/20/8 55/21/8
f 63/23/9 61/5/9 50/22/9
f 87/25/35 62/1/35 52/24/35
f 57/26/9 67/59/9 73/28/9
f 64/20/8 70/30/8 65/29/8
f 56/19/8 66/31/8 70/30/8
f 57/17/6 60/18/6 69/33/6
f 80/35/38 81/34/38 74/27/38
f 76/36/39 81/34/39 78/37/39
f 78/37/40 80/35/40 73/28/40
f 76/36/41 79/38/41 72/4/41
f 74/27/42 81/34/42 76/36/42
f 72/4/43 79/38/43 75/40/43
f 61/5/35 87/25/35 82/41/35
f 49/6/7 58/39/7 86/42/7
f 60/18/3 85/7/3 88/43/3
f 54/9/37 84/44/37 82/12/37
f 53/14/3 84/44/3 85/7/3
f 49/6/35 83/3/35 87/25/35
f 58/39/7 75/40/7 86/42/7
f 66/31/7 56/19/7 86/42/7
f 94/57/21 93/48/21 90/47/21
f 90/47/22 93/48/22 92/50/22
f 98/52/19 97/51/19 93/48/19
f 97/51/20 96/53/20 92/50/20
f 101/55/17 100/54/17 97/51/17
f 100/54/18 99/56/18 96/53/18
f 104/52/32 103/51/32 100/54/32
f 103/51/33 102/53/33 99/56/33
f 107/57/25 106/48/25 103/51/25
f 106/48/26 105/50/26 102/53/26
f 89/49/29 92/50/29 95/58/29
f 92/50/28 96/53/28 95/58/28
f 96/53/27 99/56/27 95/58/27
f 99/56/34 102/53/34 95/58/34
f 102/53/31 105/50/31 95/58/31
f 91/46/23 90/47/23 106/48/23
f 90/47/24 89/49/24 105/50/24
f 105/50/30 89/49/30 95/58/30
f 30/25/1 14/1/1 26/3/1
f 13/5/44 17/4/44 15/23/44
f 17/4/45 1/6/45 10/39/45
f 27/44/3 28/7/3 6/9/3
f 11/8/4 7/10/4 6/9/4
f 27/44/5 25/12/5 5/14/5
f 68/16/4 65/15/4 11/8/4
f 88/43/3 68/16/3 28/7/3
f 2/13/6 9/17/6 5/14/6
f 29/42/7 26/3/7 8/19/7
f 14/1/8 16/20/8 3/2/8
f 4/24/8 7/21/8 14/1/8
f 9/26/9 2/22/9 15/23/9
f 25/41/1 4/24/1 30/25/1
f 18/28/9 67/59/9 9/26/9
f 9/26/46 15/23/46 19/27/46
f 18/28/9 71/60/9 67/59/9
f 7/21/8 65/29/8 16/20/8
f 16/20/8 70/30/8 8/19/8
f 12/18/6 9/17/6 69/33/6
f 18/28/11 19/27/11 23/35/11
f 78/37/47 21/36/47 22/38/47
f 78/37/48 23/35/48 24/34/48
f 22/38/49 77/45/49 78/37/49
f 77/45/45 22/38/45 20/40/45
f 71/60/13 18/28/13 78/37/13
f 15/23/14 17/4/14 21/36/14
f 24/34/15 19/27/15 21/36/15
f 22/38/16 17/4/16 20/40/16
f 2/22/1 25/41/1 13/5/1
f 10/39/7 1/6/7 29/42/7
f 69/33/3 88/43/3 12/18/3
f 4/11/5 25/12/5 6/9/5
f 12/18/3 28/7/3 5/14/3
f 13/5/1 30/25/1 1/6/1
f 29/42/7 8/19/7 66/31/7
f 77/45/7 20/40/7 29/42/7
f 36/57/17 33/46/17 35/48/17
f 35/48/18 32/47/18 34/50/18
f 36/57/19 35/48/19 39/52/19
f 35/48/20 34/50/20 38/51/20
f 39/52/21 38/51/21 42/55/21
f 41/54/22 38/51/22 40/56/22
f 42/55/23 41/54/23 45/52/23
f 41/54/24 40/56/24 44/51/24
f 45/52/25 44/51/25 48/57/25
f 47/48/26 44/51/26 46/50/26
f 48/57/32 47/48/32 33/46/32
f 47/48/33 46/50/33 32/47/33
f 87/25/35 83/3/35 62/1/35
f 72/4/44 61/5/44 63/23/44
f 72/4/45 58/39/45 49/6/45
f 85/7/3 84/44/3 59/8/3
f 52/11/4 55/10/4 54/9/4
f 50/13/37 82/12/37 53/14/37
f 55/10/4 65/15/4 59/8/4
f 88/43/3 85/7/3 68/16/3
f 50/13/6 53/14/6 57/17/6
f 51/2/7 83/3/7 56/19/7
f 62/1/8 51/2/8 64/20/8
f 52/24/8 62/1/8 55/21/8
f 57/26/9 63/23/9 50/22/9
f 82/41/35 87/25/35 52/24/35
f 74/27/50 63/23/50 57/26/50
f 67/59/9 71/60/9 73/28/9
f 73/28/51 74/27/51 57/26/51
f 55/21/8 64/20/8 65/29/8
f 64/20/8 56/19/8 70/30/8
f 67/32/6 57/17/6 69/33/6
f 73/28/38 80/35/38 74/27/38
f 77/45/45 75/40/45 79/38/45
f 79/38/52 78/37/52 77/45/52
f 78/37/53 81/34/53 80/35/53
f 78/37/54 79/38/54 76/36/54
f 71/60/40 78/37/40 73/28/40
f 63/23/41 76/36/41 72/4/41
f 63/23/42 74/27/42 76/36/42
f 58/39/43 72/4/43 75/40/43
f 50/22/35 61/5/35 82/41/35
f 83/3/7 49/6/7 86/42/7
f 69/33/3 60/18/3 88/43/3
f 52/11/37 54/9/37 82/12/37
f 60/18/3 53/14/3 85/7/3
f 61/5/35 49/6/35 87/25/35
f 86/42/7 77/45/7 66/31/7
f 77/45/7 86/42/7 75/40/7
f 91/46/21 94/57/21 90/47/21
f 89/49/22 90/47/22 92/50/22
f 94/57/19 98/52/19 93/48/19
f 93/48/20 97/51/20 92/50/20
f 98/52/17 101/55/17 97/51/17
f 97/51/18 100/54/18 96/53/18
f 101/55/32 104/52/32 100/54/32
f 100/54/33 103/51/33 99/56/33
f 104/52/25 107/57/25 103/51/25
f 103/51/26 106/48/26 102/53/26
f 107/57/23 91/46/23 106/48/23
f 106/48/24 90/47/24 105/50/24
