# Blender v2.71 (sub 0) OBJ File: ''
# www.blender.org
o Cube
v -1.875228 0.249901 -0.999997
v -1.875226 -1.000002 -0.999997
v -1.875222 -1.000002 1.000003
v 1.875223 0.249905 -1.000003
v 1.875225 -0.999997 -1.000003
v 1.875226 0.712211 0.999997
v 1.875228 0.554966 0.999997
v -0.462932 -1.000000 1.000001
v -0.462933 -0.966341 1.000001
v 1.875229 -0.999997 0.999997
v 0.418079 -0.999999 0.999999
v -1.875229 0.839477 -0.999997
v -2.088146 0.839477 -1.113539
v 2.088139 0.839483 -1.113545
v 1.875222 0.839482 -1.000003
v 2.088143 0.839483 1.113539
v 1.875226 0.839482 0.999997
v -2.088142 0.839477 1.113545
v -1.875225 0.839477 1.000003
v -2.088143 1.673738 0.167132
v -2.088143 1.673738 -0.167126
v 2.088141 1.673743 -0.167132
v 2.088141 1.673743 0.167126
v -1.875224 0.712206 1.000003
v -1.875223 0.554961 1.000003
v -0.462933 0.312632 1.000001
v 0.418078 0.312633 0.999999
v 0.418077 0.312633 0.575911
v -0.462934 0.312632 0.575913
v -0.462934 -0.966341 0.575913
v 0.418079 -0.966340 0.999999
v 0.418078 -0.966340 0.575911
vt 0.844467 0.470286
vt 0.997325 0.470286
vt 0.997325 0.719649
vt 0.155533 0.990991
vt 0.002675 0.990991
vt 0.002675 0.523380
vt 0.475300 0.523380
vt 0.531838 0.772743
vt 0.512607 0.772743
vt 0.547403 0.761812
vt 0.551519 0.761812
vt 0.547403 0.937898
vt 0.547403 0.002675
vt 0.791995 0.002675
vt 0.791995 0.184354
vt 0.016561 0.496833
vt 0.002675 0.002675
vt 0.016561 0.029222
vt 0.275039 0.002675
vt 0.261153 0.029222
vt 0.275039 0.523380
vt 0.261153 0.496833
vt 0.894022 0.280351
vt 0.791995 0.162351
vt 0.791995 0.120675
vt 0.547403 0.523380
vt 0.431660 0.523380
vt 0.431660 0.002675
vt 0.390782 0.002675
vt 0.772364 0.719649
vt 0.874391 0.837649
vt 0.874391 0.879325
vt 0.390782 0.523380
vt 0.772364 0.470286
vt 0.155533 0.523380
vt 0.227636 0.990991
vt 0.547403 0.772743
vt 0.756799 0.937898
vt 0.737569 0.937898
vt 0.737569 0.470286
vt 0.547403 0.651966
vt 0.707932 0.761812
vt 0.707932 0.651966
vt 0.772364 0.937898
vt 0.756799 0.470287
vt 0.899739 0.439815
vt 0.791995 0.439815
vt 0.791995 0.280351
vt 0.547403 0.470286
vt 0.322441 0.772743
vt 0.374306 0.772743
vt 0.374306 0.882589
vt 0.270577 0.682844
vt 0.322441 0.682844
vt 0.322441 0.842308
vt 0.426170 0.882589
vt 0.270577 0.523380
vt 0.322441 0.523380
vt 0.787929 0.719649
vt 0.807159 0.719649
vt 0.791995 0.294200
vt 0.791995 0.470286
vt 0.894022 0.002675
vt 0.772364 0.997325
vt 0.227636 0.523380
vt 0.551519 0.651966
vt 0.899739 0.280351
vt 0.270577 0.842308
vt 0.322441 0.882589
vt 0.426170 0.772743
vn -1.000000 -0.000000 0.000000
vn -0.000000 -0.000000 -1.000000
vn 1.000000 0.000000 -0.000000
vn 0.000000 0.000000 1.000000
vn 0.000000 -1.000000 0.000000
vn -0.000000 0.750200 -0.661300
vn -0.000000 0.750200 0.661300
vn -0.000000 1.000000 -0.000000
s off
f 1/1/1 2/2/1 3/3/1
f 4/4/2 5/5/2 2/6/2
f 4/7/3 6/8/3 7/9/3
f 8/10/4 9/11/4 3/12/4
f 5/13/5 10/14/5 11/15/5
f 12/16/5 13/6/5 14/17/5
f 15/18/5 14/17/5 16/19/5
f 17/20/5 16/19/5 18/21/5
f 12/16/5 19/22/5 18/21/5
f 18/23/1 20/24/1 21/25/1
f 13/26/6 21/27/6 22/28/6
f 18/21/7 16/19/7 23/29/7
f 14/30/3 22/31/3 23/32/3
f 22/28/8 21/27/8 20/33/8
f 12/34/1 1/1/1 19/30/1
f 4/4/2 1/35/2 15/36/2
f 17/37/3 6/8/3 4/7/3
f 24/38/4 25/39/4 7/40/4
f 9/11/4 8/10/4 11/41/4
f 26/42/4 27/43/4 7/40/4
f 19/44/4 24/38/4 6/45/4
f 28/46/4 29/47/4 30/48/4
f 10/49/4 7/40/4 27/43/4
f 31/50/8 32/51/8 30/52/8
f 27/53/1 28/54/1 32/55/1
f 26/56/5 29/52/5 28/51/5
f 9/57/3 30/58/3 29/54/3
f 24/59/1 1/1/1 25/60/1
f 1/35/2 4/4/2 2/6/2
f 1/1/1 3/3/1 25/60/1
f 8/61/5 3/62/5 2/49/5
f 10/50/3 4/7/3 7/9/3
f 25/39/4 3/12/4 26/42/4
f 10/50/3 5/58/3 4/7/3
f 3/12/4 9/11/4 26/42/4
f 11/15/5 8/61/5 2/49/5
f 17/20/5 15/18/5 16/19/5
f 15/18/5 12/16/5 14/17/5
f 5/13/5 11/15/5 2/49/5
f 19/22/5 17/20/5 18/21/5
f 13/6/5 12/16/5 18/21/5
f 13/63/1 18/23/1 21/25/1
f 14/13/6 13/26/6 22/28/6
f 20/33/7 18/21/7 23/29/7
f 16/64/3 14/30/3 23/32/3
f 23/29/8 22/28/8 20/33/8
f 19/30/1 1/1/1 24/59/1
f 15/36/2 1/35/2 12/65/2
f 15/26/3 17/37/3 4/7/3
f 6/45/4 24/38/4 7/40/4
f 31/66/4 9/11/4 11/41/4
f 25/39/4 26/42/4 7/40/4
f 17/34/4 19/44/4 6/45/4
f 32/67/4 28/46/4 30/48/4
f 31/68/1 27/53/1 32/55/1
f 31/66/4 10/49/4 27/43/4
f 9/69/8 31/50/8 30/52/8
f 31/66/4 11/41/4 10/49/4
f 27/70/5 26/56/5 28/51/5
f 26/53/3 9/57/3 29/54/3
