# Blender v2.77 (sub 0) OBJ File: ''
# www.blender.org
o Cube.008_Cube.009
v -5.628923 2.000000 0.982917
v -5.628923 4.000000 0.982917
v -5.628923 2.000000 -1.017083
v -5.628923 4.000000 -1.017083
v -3.628923 2.000000 0.982917
v -3.628923 4.000000 0.982917
v -3.628923 2.000000 -1.017083
v -3.628923 4.000000 -1.017083
v -5.628923 0.000000 0.982917
v -5.628923 2.000000 0.982917
v -5.628923 0.000000 -1.017083
v -5.628923 2.000000 -1.017083
v -3.628923 0.000000 0.982917
v -3.628923 2.000000 0.982917
v -3.628923 0.000000 -1.017083
v -3.628923 2.000000 -1.017083
v -5.628923 3.000000 0.982917
v -5.628923 5.000000 0.982917
v -5.628923 3.000000 -1.017083
v -5.628923 5.000000 -1.017083
v -3.628923 3.000000 0.982917
v -3.628923 5.000000 0.982917
v -3.628923 3.000000 -1.017083
v -3.628923 5.000000 -1.017083
v 4.356585 0.000000 0.982723
v 4.356585 2.000000 0.982723
v 4.356585 0.000000 -1.017277
v 4.356585 2.000000 -1.017277
v 6.356585 0.000000 0.982723
v 6.356585 2.000000 0.982723
v 6.356585 0.000000 -1.017277
v 6.356585 2.000000 -1.017277
v 4.356585 1.000000 0.982723
v 4.356585 3.000000 0.982723
v 4.356585 1.000000 -1.017277
v 4.356585 3.000000 -1.017277
v 6.356585 1.000000 0.982723
v 6.356585 3.000000 0.982723
v 6.356585 1.000000 -1.017277
v 6.356585 3.000000 -1.017277
v -1.000000 4.000000 -4.502505
v -1.000000 6.000000 -4.502505
v -1.000000 4.000000 -6.502505
v -1.000000 6.000000 -6.502505
v 1.000000 4.000000 -4.502505
v 1.000000 6.000000 -4.502505
v 1.000000 4.000000 -6.502505
v 1.000000 6.000000 -6.502505
v -1.000000 0.000000 -4.502505
v -1.000000 2.000000 -4.502505
v -1.000000 0.000000 -6.502505
v -1.000000 2.000000 -6.502505
v 1.000000 0.000000 -4.502505
v 1.000000 2.000000 -4.502505
v 1.000000 0.000000 -6.502505
v 1.000000 2.000000 -6.502505
v -1.000000 2.000000 -4.502505
v -1.000000 4.000000 -4.502505
v -1.000000 2.000000 -6.502505
v -1.000000 4.000000 -6.502505
v 1.000000 2.000000 -4.502505
v 1.000000 4.000000 -4.502505
v 1.000000 2.000000 -6.502505
v 1.000000 4.000000 -6.502505
v -1.000000 2.000000 6.497495
v -1.000000 4.000000 6.497495
v -1.000000 2.000000 4.497495
v -1.000000 4.000000 4.497495
v 1.000000 2.000000 6.497495
v 1.000000 4.000000 6.497495
v 1.000000 2.000000 4.497495
v 1.000000 4.000000 4.497495
v -1.000000 0.000000 6.497495
v -1.000000 2.000000 6.497495
v -1.000000 0.000000 4.497495
v -1.000000 2.000000 4.497495
v 1.000000 0.000000 6.497495
v 1.000000 2.000000 6.497495
v 1.000000 0.000000 4.497495
v 1.000000 2.000000 4.497495
v -10.000000 10.000000 10.000000
v 10.000000 10.000000 10.000000
v -10.000000 10.000000 -10.000000
v 10.000000 10.000000 -10.000000
v -1.000000 0.000000 1.000000
v -1.000000 2.000000 1.000000
v -1.000000 0.000000 -1.000000
v -1.000000 2.000000 -1.000000
v 1.000000 0.000000 1.000000
v 1.000000 2.000000 1.000000
v 1.000000 0.000000 -1.000000
v 1.000000 2.000000 -1.000000
v -10.000000 0.000000 10.000000
v 10.000000 0.000000 10.000000
v -10.000000 0.000000 -10.000000
v 10.000000 0.000000 -10.000000
vn -1.0000 0.0000 0.0000
vn 0.0000 0.0000 -1.0000
vn 1.0000 0.0000 0.0000
vn 0.0000 0.0000 1.0000
vn 0.0000 -1.0000 0.0000
vn 0.0000 1.0000 0.0000
s off
f 4//1 1//1 2//1
f 8//2 3//2 4//2
f 6//3 7//3 8//3
f 2//4 5//4 6//4
f 3//5 5//5 1//5
f 8//6 2//6 6//6
f 12//1 9//1 10//1
f 16//2 11//2 12//2
f 14//3 15//3 16//3
f 10//4 13//4 14//4
f 11//5 13//5 9//5
f 16//6 10//6 14//6
f 20//1 17//1 18//1
f 24//2 19//2 20//2
f 22//3 23//3 24//3
f 18//4 21//4 22//4
f 19//5 21//5 17//5
f 24//6 18//6 22//6
f 28//1 25//1 26//1
f 32//2 27//2 28//2
f 30//3 31//3 32//3
f 26//4 29//4 30//4
f 27//5 29//5 25//5
f 32//6 26//6 30//6
f 36//1 33//1 34//1
f 40//2 35//2 36//2
f 38//3 39//3 40//3
f 34//4 37//4 38//4
f 35//5 37//5 33//5
f 40//6 34//6 38//6
f 44//1 41//1 42//1
f 48//2 43//2 44//2
f 46//3 47//3 48//3
f 42//4 45//4 46//4
f 43//5 45//5 41//5
f 48//6 42//6 46//6
f 52//1 49//1 50//1
f 56//2 51//2 52//2
f 54//3 55//3 56//3
f 50//4 53//4 54//4
f 51//5 53//5 49//5
f 56//6 50//6 54//6
f 60//1 57//1 58//1
f 64//2 59//2 60//2
f 62//3 63//3 64//3
f 58//4 61//4 62//4
f 59//5 61//5 57//5
f 64//6 58//6 62//6
f 68//1 65//1 66//1
f 72//2 67//2 68//2
f 70//3 71//3 72//3
f 66//4 69//4 70//4
f 67//5 69//5 65//5
f 72//6 66//6 70//6
f 76//1 73//1 74//1
f 80//2 75//2 76//2
f 78//3 79//3 80//3
f 74//4 77//4 78//4
f 75//5 77//5 73//5
f 80//6 74//6 78//6
f 82//6 83//6 81//6
f 88//1 85//1 86//1
f 92//2 87//2 88//2
f 90//3 91//3 92//3
f 86//4 89//4 90//4
f 87//5 89//5 85//5
f 92//6 86//6 90//6
f 94//6 95//6 93//6
f 4//1 3//1 1//1
f 8//2 7//2 3//2
f 6//3 5//3 7//3
f 2//4 1//4 5//4
f 3//5 7//5 5//5
f 8//6 4//6 2//6
f 12//1 11//1 9//1
f 16//2 15//2 11//2
f 14//3 13//3 15//3
f 10//4 9//4 13//4
f 11//5 15//5 13//5
f 16//6 12//6 10//6
f 20//1 19//1 17//1
f 24//2 23//2 19//2
f 22//3 21//3 23//3
f 18//4 17//4 21//4
f 19//5 23//5 21//5
f 24//6 20//6 18//6
f 28//1 27//1 25//1
f 32//2 31//2 27//2
f 30//3 29//3 31//3
f 26//4 25//4 29//4
f 27//5 31//5 29//5
f 32//6 28//6 26//6
f 36//1 35//1 33//1
f 40//2 39//2 35//2
f 38//3 37//3 39//3
f 34//4 33//4 37//4
f 35//5 39//5 37//5
f 40//6 36//6 34//6
f 44//1 43//1 41//1
f 48//2 47//2 43//2
f 46//3 45//3 47//3
f 42//4 41//4 45//4
f 43//5 47//5 45//5
f 48//6 44//6 42//6
f 52//1 51//1 49//1
f 56//2 55//2 51//2
f 54//3 53//3 55//3
f 50//4 49//4 53//4
f 51//5 55//5 53//5
f 56//6 52//6 50//6
f 60//1 59//1 57//1
f 64//2 63//2 59//2
f 62//3 61//3 63//3
f 58//4 57//4 61//4
f 59//5 63//5 61//5
f 64//6 60//6 58//6
f 68//1 67//1 65//1
f 72//2 71//2 67//2
f 70//3 69//3 71//3
f 66//4 65//4 69//4
f 67//5 71//5 69//5
f 72//6 68//6 66//6
f 76//1 75//1 73//1
f 80//2 79//2 75//2
f 78//3 77//3 79//3
f 74//4 73//4 77//4
f 75//5 79//5 77//5
f 80//6 76//6 74//6
f 82//6 84//6 83//6
f 88//1 87//1 85//1
f 92//2 91//2 87//2
f 90//3 89//3 91//3
f 86//4 85//4 89//4
f 87//5 91//5 89//5
f 92//6 88//6 86//6
f 94//6 96//6 95//6
