# Blender v2.77 (sub 0) OBJ File: ''
# www.blender.org
o Cube_Cube.001
v 0.268937 -0.431306 0.307149
v 0.268937 -0.274884 0.349693
v 0.062857 -0.223597 -0.456539
v 0.062857 -0.067175 -0.413995
v 0.425811 -0.420586 0.267733
v 0.425811 -0.264164 0.310277
v 0.219730 -0.212876 -0.495955
v 0.219730 -0.056454 -0.453411
vn -0.9677 -0.0661 0.2432
vn -0.2520 0.2540 -0.9338
vn 0.9677 0.0661 -0.2432
vn 0.2520 -0.2540 0.9338
vn 0.0000 -0.9649 -0.2624
vn 0.0000 0.9649 0.2624
s off
f 4//1 1//1 2//1
f 4//2 7//2 3//2
f 6//3 7//3 8//3
f 2//4 5//4 6//4
f 1//5 7//5 5//5
f 8//6 2//6 6//6
f 4//1 3//1 1//1
f 4//2 8//2 7//2
f 6//3 5//3 7//3
f 2//4 1//4 5//4
f 1//5 3//5 7//5
f 8//6 4//6 2//6
